<svg xmlns="http://www.w3.org/2000/svg" viewBox="0 0 440 580">
  <rect width="440" height="580" fill="#0A1628"/>
  <path d="M 33,210 C 42,174 80,164 110,178 C 132,190 138,220 128,254 C 118,290 100,330 76,346 C 52,360 22,352 10,326 C 0,302 12,254 33,210 Z" fill="#F5F0E8"/>
  <path d="M 282,73 C 290,50 309,47 320,70 C 328,90 340,162 314,226 C 302,286 278,320 263,308 C 248,296 242,256 262,200 C 273,152 276,92 282,73 Z" fill="#F5F0E8"/>
  <path d="M 350,463 C 361,436 396,428 414,454 C 428,476 422,516 398,530 C 374,542 344,534 328,510 C 314,488 332,475 350,463 Z" fill="#F5F0E8"/>
</svg>
